<svg width="136" height="41" viewBox="0 0 136 41" fill="none" xmlns="http://www.w3.org/2000/svg">
<g clip-path="url(#clip0_611_26)">
<path d="M114.214 7.97986H105.421L113.918 16.4768L105.421 24.9737H114.214L122.711 16.4768L114.214 7.97986Z" fill="white"/>
<path d="M127.503 7.97986H118.71L127.207 16.4768L118.71 24.9737H127.503L136 16.4768L127.503 7.97986Z" fill="white"/>
<path d="M2.96404 7.58467H8.05231L5.08827 24.4797H0L2.96404 7.58467ZM3.26044 3.08921C3.55685 1.45899 5.08827 0.0263672 6.76789 0.0263672C8.44751 0.0263672 9.58373 1.40959 9.33672 3.08921C9.08972 4.76883 7.5089 6.15205 5.77988 6.15205C4.05085 6.15205 3.01344 4.67003 3.26044 3.08921ZM26.8246 14.1056L24.9967 24.4797H19.9579L21.6375 14.8466C22.0327 12.6729 20.8471 11.7837 19.2169 11.7837C17.5372 11.7837 16.0058 12.7717 15.5118 15.0442L13.8322 24.4797H8.79332L11.7574 7.58467H16.8456L16.5986 9.16549C17.7348 7.88107 19.6615 7.09066 21.5881 7.09066C24.9967 7.14006 27.615 9.61009 26.8246 14.1056ZM46.6836 16.0322C46.6342 16.4274 46.4366 17.366 46.1402 18.0576H34.0371C34.3335 19.9348 35.9143 20.4288 37.4951 20.4288C38.9277 20.4288 40.0639 20.0336 41.0519 19.095L44.6088 22.0097C42.6328 23.9857 40.3109 24.9737 37.1987 24.9737C31.3694 24.9737 28.3066 20.7746 29.1464 15.7358C29.5346 13.3319 30.7678 11.1454 32.6243 9.56972C34.4807 7.994 36.8385 7.13245 39.2735 7.14006C44.1148 7.14006 47.6222 10.8945 46.6836 16.0322ZM41.8918 14.2044C41.7436 12.3271 40.4097 11.5861 38.8289 11.5861C37.9637 11.5706 37.113 11.8107 36.3837 12.2765C35.6543 12.7422 35.0786 13.4128 34.7287 14.2044H41.8918ZM61.2074 7.23886L60.2194 12.9693C58.2434 12.6729 55.0323 13.3645 54.4395 16.8226L54.4889 16.625L53.1057 24.4797H48.0668L51.0309 7.58467H56.1191L55.5757 10.6475C56.6131 8.32568 58.8362 7.23886 61.2074 7.23886ZM68.0741 18.4528C67.8271 19.9842 69.0621 20.083 71.3345 19.8854L70.5441 24.4797C64.4679 25.1713 62.1954 23.1459 63.0352 18.4528L64.0726 12.4753H61.3556L62.2448 7.58467H64.9125L65.5053 4.37362L70.8405 2.8422L70.0007 7.58467H73.5082L72.619 12.4753H69.1609L68.0741 18.4528ZM76.7192 7.58467H81.8075L78.8434 24.4797H73.7552L76.7192 7.58467ZM77.0156 3.08921C77.2626 1.45899 78.8434 0.0263672 80.5231 0.0263672C82.2027 0.0263672 83.3389 1.40959 83.0919 3.08921C82.8449 4.76883 81.2641 6.15205 79.5351 6.15205C77.806 6.15205 76.7192 4.67003 77.0156 3.08921ZM102.803 7.58467L99.8387 24.4797H94.7505L94.9481 23.3435C93.5027 24.4802 91.6966 25.0589 89.8598 24.9737C84.3763 24.9737 82.3015 20.2312 83.1907 15.637C83.9811 11.2897 87.4392 7.14006 92.6756 7.14006C94.8987 7.14006 96.4795 8.02927 97.4181 9.41249L97.7145 7.63407H102.803V7.58467ZM96.2819 16.0816C96.7265 13.5127 95.3433 11.9319 93.0214 11.9319C91.873 11.9227 90.761 12.335 89.8961 13.0906C89.0312 13.8463 88.4734 14.8929 88.3284 16.0322C87.8838 18.5516 89.2176 20.1324 91.5888 20.1324C93.8612 20.1818 95.8373 18.601 96.2819 16.0816Z" fill="white"/>
</g>
<path d="M34.7102 32C34.7358 31.7188 34.6676 31.4986 34.5057 31.3395C34.3438 31.1776 34.071 31.0966 33.6875 31.0966C33.4432 31.0966 33.2386 31.125 33.0739 31.1818C32.9119 31.2386 32.7855 31.3168 32.6946 31.4162C32.6065 31.5156 32.5511 31.6307 32.5284 31.7614C32.5028 31.8636 32.5043 31.9574 32.5327 32.0426C32.5639 32.125 32.6222 32.2003 32.7074 32.2685C32.7955 32.3366 32.9105 32.3977 33.0526 32.4517C33.1974 32.5057 33.3693 32.554 33.5682 32.5966L34.25 32.75C34.7159 32.8523 35.1065 32.9872 35.4219 33.1548C35.7401 33.3196 35.9901 33.5156 36.1719 33.7429C36.3537 33.9702 36.473 34.2244 36.5298 34.5057C36.5895 34.7869 36.5909 35.0937 36.5341 35.4261C36.4375 36 36.2145 36.4858 35.8651 36.8835C35.5156 37.2812 35.0597 37.5838 34.4972 37.7912C33.9347 37.9986 33.2841 38.1023 32.5455 38.1023C31.7898 38.1023 31.1477 37.9901 30.6193 37.7656C30.0938 37.5384 29.7131 37.1918 29.4773 36.7259C29.2443 36.2571 29.1875 35.6591 29.3068 34.9318H31.5568C31.5227 35.1989 31.5511 35.4233 31.642 35.6051C31.733 35.7869 31.8793 35.9247 32.081 36.0185C32.2827 36.1122 32.5341 36.1591 32.8352 36.1591C33.0909 36.1591 33.3097 36.1278 33.4915 36.0653C33.6733 36.0028 33.8168 35.9162 33.9219 35.8054C34.027 35.6946 34.0909 35.5682 34.1136 35.4261C34.1364 35.2955 34.1136 35.179 34.0455 35.0767C33.9773 34.9744 33.8537 34.8821 33.6747 34.7997C33.4957 34.7173 33.25 34.642 32.9375 34.5739L32.1023 34.3864C31.3608 34.2159 30.8011 33.9347 30.4233 33.5426C30.0455 33.1506 29.9119 32.6136 30.0227 31.9318C30.1136 31.375 30.3423 30.8892 30.7088 30.4744C31.0781 30.0568 31.5469 29.733 32.1151 29.5028C32.6861 29.2699 33.3182 29.1534 34.0114 29.1534C34.7159 29.1534 35.3054 29.2713 35.7798 29.5071C36.2571 29.7429 36.5994 30.0739 36.8068 30.5C37.017 30.9261 37.0739 31.4261 36.9773 32H34.7102ZM37.0092 38L38.4581 29.2727H44.7479L44.424 31.1818H40.5036L40.2649 32.6818H43.8615L43.5376 34.5909H39.9411L39.7024 36.0909H43.6058L43.282 38H37.0092ZM44.4741 38L45.9229 29.2727H49.69C50.3377 29.2727 50.8846 29.3906 51.3306 29.6264C51.7766 29.8622 52.0977 30.2017 52.2937 30.6449C52.4897 31.0881 52.5366 31.6193 52.4343 32.2386C52.332 32.8636 52.1062 33.3906 51.7567 33.8196C51.4102 34.2457 50.9684 34.5696 50.4315 34.7912C49.8974 35.0099 49.2979 35.1193 48.6332 35.1193H46.3832L46.69 33.2784H48.4627C48.7411 33.2784 48.9854 33.2443 49.1957 33.1761C49.4059 33.1051 49.5763 32.9943 49.707 32.8438C49.8377 32.6903 49.9229 32.4886 49.9627 32.2386C50.0025 31.9886 49.9826 31.7855 49.9031 31.6293C49.8235 31.4702 49.6914 31.3537 49.5067 31.2798C49.3221 31.2031 49.0934 31.1648 48.8207 31.1648H47.9854L46.8434 38H44.4741ZM50.2525 33.9943L51.7695 38H49.1957L47.7298 33.9943H50.2525ZM56.1726 29.2727L56.9396 35.4261H57.0078L59.8203 29.2727H62.4964L58.1669 38H54.9283L53.4964 29.2727H56.1726ZM61.8881 38L63.337 29.2727H69.6268L69.3029 31.1818H65.3825L65.1438 32.6818H68.7404L68.4165 34.5909H64.82L64.5813 36.0909H68.4847L68.1609 38H61.8881ZM69.353 38L70.8018 29.2727H74.5689C75.2166 29.2727 75.7635 29.3906 76.2095 29.6264C76.6555 29.8622 76.9766 30.2017 77.1726 30.6449C77.3686 31.0881 77.4155 31.6193 77.3132 32.2386C77.2109 32.8636 76.9851 33.3906 76.6357 33.8196C76.2891 34.2457 75.8473 34.5696 75.3104 34.7912C74.7763 35.0099 74.1768 35.1193 73.5121 35.1193H71.2621L71.5689 33.2784H73.3416C73.62 33.2784 73.8643 33.2443 74.0746 33.1761C74.2848 33.1051 74.4553 32.9943 74.5859 32.8438C74.7166 32.6903 74.8018 32.4886 74.8416 32.2386C74.8814 31.9886 74.8615 31.7855 74.782 31.6293C74.7024 31.4702 74.5703 31.3537 74.3857 31.2798C74.201 31.2031 73.9723 31.1648 73.6996 31.1648H72.8643L71.7223 38H69.353ZM75.1314 33.9943L76.6484 38H74.0746L72.6087 33.9943H75.1314Z" fill="white"/>
<defs>
<clipPath id="clip0_611_26">
<rect width="136" height="25" fill="white"/>
</clipPath>
</defs>
</svg>
